<svg width="24" height="24" viewBox="0 0 24 24" fill="none" xmlns="http://www.w3.org/2000/svg">
<path d="M20.3632 0.551941H3.63788C1.93406 0.551941 0.552734 1.93318 0.552734 3.63708V20.3624C0.552734 22.0664 1.93398 23.4476 3.63788 23.4476H11.8866L11.9009 15.2662H9.77512C9.49887 15.2662 9.27465 15.0427 9.27372 14.7665L9.26333 12.1291C9.26223 11.8515 9.48731 11.6256 9.76489 11.6256H11.8869V9.07738C11.8869 6.1202 13.693 4.50997 16.331 4.50997H18.4958C18.7726 4.50997 18.9973 4.7345 18.9973 5.01153V7.2352C18.9973 7.51223 18.7728 7.73676 18.4961 7.73676L17.1675 7.73754C15.7329 7.73754 15.4549 8.41918 15.4549 9.4198V11.626H18.6074C18.908 11.626 19.1409 11.8883 19.1054 12.1863L18.7928 14.8238C18.7631 15.0763 18.5489 15.2663 18.2948 15.2663H15.4692L15.4549 23.448H20.3631C22.0669 23.448 23.4483 22.0666 23.4483 20.3628V3.63708C23.4484 1.93326 22.067 0.551941 20.3632 0.551941Z" fill="white"/>
<path d="M11.8859 23.4474L11.9002 15.2661H11.8652V23.4474H11.8859Z" fill="white"/>
</svg>
