<svg width="24" height="24" viewBox="0 0 24 24" fill="none" xmlns="http://www.w3.org/2000/svg">
<path d="M16.6277 0.552185H7.37336C3.61242 0.552185 0.552734 3.61187 0.552734 7.37281V16.6271C0.552734 20.3879 3.61242 23.4478 7.37344 23.4478H16.6277C20.3885 23.4478 23.4484 20.388 23.4484 16.6271V7.37281C23.4484 3.61187 20.3886 0.552185 16.6277 0.552185ZM21.1451 16.6272C21.1451 19.122 19.1226 21.1445 16.6277 21.1445H7.37344C4.87859 21.1445 2.85609 19.122 2.85609 16.6272V7.37289C2.85609 4.87804 4.87859 2.85547 7.37344 2.85547H16.6277C19.1226 2.85547 21.1451 4.87812 21.1451 7.37289V16.6272Z" fill="white"/>
<path d="M11.9998 6.07837C8.73469 6.07837 6.07812 8.73493 6.07812 12.0001C6.07812 15.265 8.73469 17.9216 11.9998 17.9216C15.265 17.9216 17.9213 15.2652 17.9213 12.0001C17.9213 8.73493 15.265 6.07837 11.9998 6.07837ZM11.9998 15.6183C10.0015 15.6183 8.38141 13.9985 8.38141 12.0001C8.38141 10.0017 10.0015 8.38165 11.9998 8.38165C13.9982 8.38165 15.618 10.0016 15.618 12.0001C15.618 13.9984 13.9982 15.6183 11.9998 15.6183Z" fill="white"/>
<path d="M19.3516 6.1229C19.3516 6.9065 18.7163 7.54189 17.9327 7.54189C17.1491 7.54189 16.5137 6.9065 16.5137 6.1229C16.5137 5.33923 17.1491 4.70392 17.9327 4.70392C18.7165 4.70392 19.3516 5.33908 19.3516 6.1229Z" fill="white"/>
</svg>
