<svg width="24" height="20" viewBox="0 0 24 20" fill="none" xmlns="http://www.w3.org/2000/svg">
<path d="M21.9767 0.43122C22.7741 0.120126 23.5983 0.817783 23.4232 1.65544L19.8475 18.7477C19.6804 19.549 18.739 19.91 18.0791 19.4251L12.6811 15.4629L9.92964 18.2723C9.44612 18.7653 8.61245 18.5646 8.40503 17.9073L6.41987 11.6056L1.09862 10.0339C0.399639 9.82778 0.359248 8.85544 1.03667 8.59013L21.9767 0.43122ZM19.3518 4.2238C19.5848 4.0177 19.3141 3.65411 19.0501 3.81841L7.56456 10.9416C7.36253 11.0668 7.26964 11.3133 7.34097 11.5409L8.90729 18.419C8.93831 18.5241 9.08909 18.5093 9.10261 18.4002L9.45276 13.1585C9.4662 13.0292 9.52815 12.9107 9.62519 12.8245L19.3518 4.2238Z" fill="white"/>
<path d="M19.0532 3.81841C19.3172 3.65411 19.5879 4.0177 19.3549 4.2238L9.62839 12.8245C9.53144 12.9107 9.46949 13.0292 9.45597 13.1585L9.10582 18.4002C9.09238 18.5093 8.94152 18.5241 8.9105 18.419L7.34418 11.5409C7.27277 11.3133 7.36574 11.0668 7.56777 10.9416L19.0532 3.81841Z" fill="#9EC2E5"/>
<path d="M8.96589 18.4905C8.71269 18.4003 8.49855 18.1982 8.40698 17.9073L6.42183 11.6056L1.10058 10.0339C0.401592 9.82776 0.361201 8.85541 1.03862 8.5901L21.9786 0.431264C22.4931 0.23056 23.0197 0.450092 23.2796 0.856889C23.2311 0.782826 23.1732 0.714155 23.1086 0.653529L8.90253 12.2508V12.7585L8.8244 12.702L8.90253 15.8993V18.4636C8.92276 18.4731 8.94425 18.4811 8.96581 18.4878V18.4905H8.96589Z" fill="white"/>
<path d="M8.99508 18.4986C8.98703 18.4973 8.98023 18.4946 8.97219 18.4919C8.97086 18.4932 8.96813 18.4919 8.9668 18.4906V18.4879C8.97617 18.4932 8.98563 18.4959 8.99508 18.4986Z" fill="#DADDE0"/>
<path d="M8.90039 15.8993L8.96367 18.4878C8.94211 18.4811 8.92055 18.473 8.90039 18.4636V15.8993Z" fill="#D1D1D1"/>
<path d="M8.90039 12.7585V15.8993L8.82227 12.702L8.90039 12.7585Z" fill="#DADDE0"/>
<path d="M19.353 4.22387L9.62644 12.8246C9.52949 12.9108 9.46754 13.0293 9.45402 13.1586L9.10449 18.4008C9.09105 18.5098 8.94019 18.5247 8.90785 18.4196L7.34222 11.5411C7.27082 11.3135 7.36379 11.067 7.56582 10.9418L19.0514 3.81856C19.3153 3.65418 19.5861 4.01786 19.353 4.22387Z" fill="#141414"/>
</svg>
